HIERARCHY
ROOT hip
{
  OFFSET 0 0 0
  CHANNELS 6 Xposition Yposition Zposition Zrotation Yrotation Xrotation
  JOINT abdomen
  {
    OFFSET 0 20.6881 -0.73152
    CHANNELS 3 Zrotation Xrotation Yrotation
    JOINT chest
    {
      OFFSET 0 11.7043 -0.48768
      CHANNELS 3 Zrotation Xrotation Yrotation
      JOINT neck
      {
        OFFSET 0 22.1894 -2.19456
        CHANNELS 3 Zrotation Xrotation Yrotation
        JOINT head
        {
          OFFSET -0.24384 7.07133 1.2192
          CHANNELS 3 Zrotation Xrotation Yrotation
          JOINT leftEye
          {
            OFFSET 4.14528 8.04674 8.04672
            CHANNELS 3 Zrotation Xrotation Yrotation
            End Site
            {
              OFFSET 1 0 0
            }
          }
          JOINT rightEye
          {
            OFFSET -3.6576 8.04674 8.04672
            CHANNELS 3 Zrotation Xrotation Yrotation
            End Site
            {
              OFFSET 1 0 0
            }
          }
        }
      }
      JOINT rCollar
      {
        OFFSET -2.68224 19.2634 -4.8768
        CHANNELS 3 Zrotation Xrotation Yrotation
        JOINT rShldr
        {
          OFFSET -8.77824 -1.95073 1.46304
          CHANNELS 3 Zrotation Xrotation Yrotation
          JOINT rForeArm
          {
            OFFSET -28.1742 -1.7115 0.48768
            CHANNELS 3 Zrotation Xrotation Yrotation
            JOINT rHand
            {
              OFFSET -22.5879 0.773209 7.07136
              CHANNELS 3 Zrotation Xrotation Yrotation
              JOINT rThumb1
              {
                OFFSET -1.2192 -0.487915 3.41376
                CHANNELS 3 Zrotation Xrotation Yrotation
                JOINT rThumb2
                {
                  OFFSET -3.37035 -0.52449 3.41376
                  CHANNELS 3 Zrotation Xrotation Yrotation
                  End Site
                  {
                    OFFSET -1.78271 -1.18214 1.43049
                  }
                }
              }
              JOINT rIndex1
              {
                OFFSET -7.75947 0.938293 5.60832
                CHANNELS 3 Zrotation Xrotation Yrotation
                JOINT rIndex2
                {
                  OFFSET -2.54057 -0.884171 1.56538
                  CHANNELS 3 Zrotation Xrotation Yrotation
                  End Site
                  {
                    OFFSET -1.62519 -0.234802 1.16502
                  }
                }
              }
              JOINT rMid1
              {
                OFFSET -8.24714 1.18213 3.41376
                CHANNELS 3 Zrotation Xrotation Yrotation
                JOINT rMid2
                {
                  OFFSET -3.10165 -0.590103 1.0647
                  CHANNELS 3 Zrotation Xrotation Yrotation
                  End Site
                  {
                    OFFSET -2.48547 -0.328903 0.83742
                  }
                }
              }
              JOINT rRing1
              {
                OFFSET -8.82822 0.546677 1.51678
                CHANNELS 3 Zrotation Xrotation Yrotation
                JOINT rRing2
                {
                  OFFSET -2.60934 -0.819778 -0.0198488
                  CHANNELS 3 Zrotation Xrotation Yrotation
                  End Site
                  {
                    OFFSET -2.33842 -0.294052 0.168128
                  }
                }
              }
              JOINT rPinky1
              {
                OFFSET -8.27202 -0.0477905 -0.4584
                CHANNELS 3 Zrotation Xrotation Yrotation
                JOINT rPinky2
                {
                  OFFSET -1.82734 -0.647385 -0.700984
                  CHANNELS 3 Zrotation Xrotation Yrotation
                  End Site
                  {
                    OFFSET -1.69225 -0.51767 -0.607171
                  }
                }
              }
            }
          }
        }
      }
      JOINT lCollar
      {
        OFFSET 2.68224 19.2634 -4.8768
        CHANNELS 3 Zrotation Xrotation Yrotation
        JOINT lShldr
        {
          OFFSET 8.77824 -1.95073 1.46304
          CHANNELS 3 Zrotation Xrotation Yrotation
          JOINT lForeArm
          {
            OFFSET 28.1742 -1.7115 0.48768
            CHANNELS 3 Zrotation Xrotation Yrotation
            JOINT lHand
            {
              OFFSET 22.5879 0.773209 7.07136
              CHANNELS 3 Zrotation Xrotation Yrotation
              JOINT lThumb1
              {
                OFFSET 1.2192 -0.487915 3.41376
                CHANNELS 3 Zrotation Xrotation Yrotation
                JOINT lThumb2
                {
                  OFFSET 3.37035 -0.52449 3.41376
                  CHANNELS 3 Zrotation Xrotation Yrotation
                  End Site
                  {
                    OFFSET 1.78271 -1.18214 1.43049
                  }
                }
              }
              JOINT lIndex1
              {
                OFFSET 7.75947 0.938293 5.60832
                CHANNELS 3 Zrotation Xrotation Yrotation
                JOINT lIndex2
                {
                  OFFSET 2.54057 -0.884171 1.56538
                  CHANNELS 3 Zrotation Xrotation Yrotation
                  End Site
                  {
                    OFFSET 1.62519 -0.234802 1.16502
                  }
                }
              }
              JOINT lMid1
              {
                OFFSET 8.24714 1.18213 3.41376
                CHANNELS 3 Zrotation Xrotation Yrotation
                JOINT lMid2
                {
                  OFFSET 3.10165 -0.590103 1.0647
                  CHANNELS 3 Zrotation Xrotation Yrotation
                  End Site
                  {
                    OFFSET 2.48547 -0.328903 0.83742
                  }
                }
              }
              JOINT lRing1
              {
                OFFSET 8.82822 0.546677 1.51678
                CHANNELS 3 Zrotation Xrotation Yrotation
                JOINT lRing2
                {
                  OFFSET 2.60934 -0.819778 -0.0198488
                  CHANNELS 3 Zrotation Xrotation Yrotation
                  End Site
                  {
                    OFFSET 2.33842 -0.294052 0.168128
                  }
                }
              }
              JOINT lPinky1
              {
                OFFSET 8.27202 -0.0477905 -0.4584
                CHANNELS 3 Zrotation Xrotation Yrotation
                JOINT lPinky2
                {
                  OFFSET 1.82734 -0.647385 -0.700984
                  CHANNELS 3 Zrotation Xrotation Yrotation
                  End Site
                  {
                    OFFSET 1.69225 -0.51767 -0.607171
                  }
                }
              }
            }
          }
        }
      }
    }
  }
  JOINT rButtock
  {
    OFFSET -8.77824 4.35084 1.2192
    CHANNELS 3 Zrotation Xrotation Yrotation
    JOINT rThigh
    {
      OFFSET 0 -1.70687 -2.19456
      CHANNELS 3 Zrotation Xrotation Yrotation
      JOINT rShin
      {
        OFFSET 0 -36.8199 0.73152
        CHANNELS 3 Zrotation Xrotation Yrotation
        JOINT rFoot
        {
          OFFSET 0.73152 -45.1104 -5.12064
          CHANNELS 3 Zrotation Xrotation Yrotation
          End Site
          {
            OFFSET -1.1221 -3.69964 12.103
          }
        }
      }
    }
  }
  JOINT lButtock
  {
    OFFSET 8.77824 4.35084 1.2192
    CHANNELS 3 Zrotation Xrotation Yrotation
    JOINT lThigh
    {
      OFFSET 0 -1.70687 -2.19456
      CHANNELS 3 Zrotation Xrotation Yrotation
      JOINT lShin
      {
        OFFSET 0 -36.8199 0.73152
        CHANNELS 3 Zrotation Xrotation Yrotation
        JOINT lFoot
        {
          OFFSET -0.73152 -45.1104 -5.12064
          CHANNELS 3 Zrotation Xrotation Yrotation
          End Site
          {
            OFFSET 1.1221 -3.69964 12.103
          }
        }
      }
    }
  }
}
MOTION
Frames:	4
Frame Time:	0.00833333
-3.11354 84.9173 -160.635 0.0 0.0 0.0 -0.140626 -0.000295013 -0.00400526 -0.038767 -0.000394545 -0.00671565 9.73174e-17 7.95139e-16 1.60074e-25 2.57799e-16 9.54166e-15 1.55301e-18 -0.0 0.0 0.0 -0.0 0.0 0.0 9.80699e-17 0.0 9.93923e-17 2.75241e-15 1.49089e-16 9.93923e-16 1.41137e-14 -5.76476e-15 1.27222e-14 1.67905e-13 -3.27995e-15 -9.54166e-15 3.93345e-13 -2.13406e-14 9.54166e-15 6.68314e-13 -3.49861e-14 6.36111e-15 3.98762e-13 -2.18663e-14 0.0 7.73091 5.47488 0.417314 3.93792e-13 -2.11706e-14 6.36111e-15 2.90554 0.965183 0.102902 4.01899e-13 -2.15681e-14 3.97569e-15 10.2786 0.731801 0.0259123 3.88226e-13 -1.82882e-14 6.36111e-15 2.22167 -0.733487 -0.20892 1.32703e-18 -3.88251e-19 -9.93923e-17 -1.16165e-15 1.49089e-16 -9.93923e-16 1.4064e-14 4.96962e-15 -6.36111e-15 1.66327e-13 -4.17448e-15 1.27222e-14 3.93248e-13 -4.83965e-16 -9.54166e-15 6.88193e-13 0.0 3.97569e-15 3.90016e-13 1.19271e-15 1.59028e-14 -7.73091 5.47488 -0.417314 3.93693e-13 -2.98177e-16 0.0 -2.90554 0.965183 -0.102902 3.85673e-13 -4.96962e-16 3.18055e-15 -10.2786 0.731801 -0.0259123 3.99358e-13 1.19271e-15 0.0 -2.22167 -0.733487 0.20892 -2.03217e-16 0.0 -3.88251e-19 0.415457 -2.89234 -0.0363696 -0.00657583 -0.313962 -0.0578457 -0.52169 3.20536 0.125419 2.03217e-16 0.0 3.88251e-19 -0.629347 -3.43714 0.049731 0.00497785 0.672915 0.0432302 0.523138 2.76331 -0.11651
-3.08932 83.4032 -161.644 -1.0438 2.2033 2.4247 0.10725 0.356509 0.480733 0.388488 -1.40104 0.143391 1.92253 0.326087 0.0710707 -2.86916 -0.590735 -0.405941 -0.0 0.0 0.0 -0.0 0.0 0.0 -4.79641e-15 5.34418e-15 -1.00235e-14 21.7866 3.53787 -2.51944 -3.8966 -1.71073 6.14944 0.00315724 -1.24856 -0.175324 8.05746e-11 -2.45299e-10 3.45667e-11 1.39211e-10 -4.24729e-10 5.99388e-11 8.05779e-11 -2.45299e-10 3.45581e-11 7.73091 5.47488 0.417314 8.05743e-11 -2.45298e-10 3.45641e-11 2.90554 0.965183 0.102902 8.05826e-11 -2.45299e-10 3.45623e-11 10.2786 0.731801 0.0259123 8.05705e-11 -2.45296e-10 3.45649e-11 2.22167 -0.733487 -0.20892 -4.82865e-15 5.34367e-15 -1.02052e-14 -21.2027 8.40517 1.0752 4.40497 -2.03969 -6.83819 -0.0148856 -2.70692 0.3789 1.87483e-10 1.57815e-10 -1.18716e-10 3.25086e-10 2.7413e-10 -2.04285e-10 1.87481e-10 1.57818e-10 -1.18696e-10 -7.73091 5.47488 -0.417314 1.87484e-10 1.57816e-10 -1.1871e-10 -2.90554 0.965183 -0.102902 1.87476e-10 1.57816e-10 -1.18705e-10 -10.2786 0.731801 -0.0259123 1.87487e-10 1.57818e-10 -1.18707e-10 -2.22167 -0.733487 0.20892 -2.03217e-16 0.0 -3.88251e-19 0.166659 -5.92525 -0.902245 0.0195178 8.31516 0.104301 -1.15456 -0.677864 -6.0242 2.03217e-16 0.0 3.88251e-19 0.466411 -6.07384 -0.334285 -0.00733479 8.15112 -0.0789259 0.883816 -0.100644 4.76244
-3.06263 83.4016 -161.582 -1.0342 2.194 2.444 0.366104 0.734079 0.991489 0.848543 -2.88768 0.301983 3.95554 0.682029 0.146379 -5.91329 -1.22159 -0.834557 -0.0 0.0 0.0 -0.0 0.0 0.0 -1.03096e-14 1.31577e-14 -2.10556e-14 45.1621 7.24618 -5.22654 -7.61492 -3.4507 12.6613 -0.00181678 -2.56001 -0.359761 1.66513e-10 -5.04761e-10 6.93774e-11 2.87689e-10 -8.73995e-10 1.20361e-10 1.66514e-10 -5.04761e-10 6.93699e-11 7.73091 5.47488 0.417314 1.66512e-10 -5.04761e-10 6.93752e-11 2.90554 0.965183 0.102902 1.66521e-10 -5.04761e-10 6.93744e-11 10.2786 0.731801 0.0259123 1.6651e-10 -5.04759e-10 6.9377e-11 2.22167 -0.733487 -0.20892 -1.02715e-14 1.3157e-14 -2.12172e-14 -43.9705 17.2758 2.2966 8.53716 -4.09971 -14.0961 0.00848031 -5.5699 0.782523 3.96898e-10 3.40883e-10 -2.46095e-10 6.8819e-10 5.92066e-10 -4.23484e-10 3.96897e-10 3.40887e-10 -2.4608e-10 -7.73091 5.47488 -0.417314 3.969e-10 3.40885e-10 -2.46093e-10 -2.90554 0.965183 -0.102902 3.96891e-10 3.40885e-10 -2.46086e-10 -10.2786 0.731801 -0.0259123 3.96901e-10 3.40887e-10 -2.46087e-10 -2.22167 -0.733487 0.20892 -2.03217e-16 0.0 -3.88251e-19 -0.192546 -9.1297 -1.82919 -0.00810442 17.4357 0.286614 -2.72524 -4.67635 -12.568 2.03217e-16 0.0 3.88251e-19 1.59042 -8.86397 -0.744219 0.0155098 16.0583 -0.214801 1.79289 -3.08087 9.93248
-3.02726 83.4018 -161.5 -0.9992 2.1285 2.4473 0.584888 1.06981 1.45043 1.26506 -4.20222 0.44467 5.76515 0.978254 0.21324 -8.63259 -1.77185 -1.21834 -0.0 0.0 0.0 -0.0 0.0 0.0 -1.45854e-14 1.60325e-14 -3.02692e-14 66.3038 10.5308 -7.67391 -10.6059 -4.89617 18.5101 -0.0134932 -3.74555 -0.526974 2.40937e-10 -7.35853e-10 1.03681e-10 4.16297e-10 -1.27412e-09 1.79804e-10 2.40936e-10 -7.35853e-10 1.03674e-10 7.73091 5.47488 0.417314 2.40935e-10 -7.35853e-10 1.03679e-10 2.90554 0.965183 0.102902 2.40944e-10 -7.35853e-10 1.03679e-10 10.2786 0.731801 0.0259123 2.40935e-10 -7.35852e-10 1.03682e-10 2.22167 -0.733487 -0.20892 -1.44886e-14 1.60318e-14 -3.04168e-14 -64.6383 25.1781 3.52635 11.7828 -5.77117 -20.6107 0.0636677 -8.11933 1.14693 5.61662e-10 4.73446e-10 -3.56129e-10 9.73882e-10 8.22391e-10 -6.12862e-10 5.61662e-10 4.73452e-10 -3.56119e-10 -7.73091 5.47488 -0.417314 5.61665e-10 4.73449e-10 -3.5613e-10 -2.90554 0.965183 -0.102902 5.61656e-10 4.73449e-10 -3.56122e-10 -10.2786 0.731801 -0.0259123 5.61664e-10 4.73451e-10 -3.56121e-10 -2.22167 -0.733487 0.20892 -2.03217e-16 0.0 -3.88251e-19 -0.611453 -11.9806 -2.678 -0.0872041 25.5727 0.471494 -4.89528 -8.02407 -18.5095 2.03217e-16 0.0 3.88251e-19 2.54997 -11.3454 -1.11837 0.070352 23.1072 -0.348826 3.05759 -5.6428 14.5923
